# xmcd
#
# Track frame offsets:
#	150
#	9742
#	49368
#	75789
#	104459
#	129405
#	165085
#	183785
#	204542
#	227999
#	256634
#	263871
#
# Disc length: 3794 seconds
#
# Revision: 1
# Processed by: cddbd v1.5.2PL0 Copyright (c) Steve Scherf et al.
# Submitted via: audiograbber 1.83.01
#
DISCID=8d0ed00c
DTITLE=Pathfinder - Fifth Element
DYEAR=2012
DGENRE=Metal
TTITLE0=Intro
TTITLE1=Fifth Element
TTITLE2=Ready to die between stars
TTITLE3=The day when I turn back time
TTITLE4=Chronokinesis
TTITLE5=March to the darkest horizon
TTITLE6=Yin Yang
TTITLE7=Elemental power
TTITLE8=Ad futuram rei memoriam
TTITLE9=When the sunrise breaks the darkness
TTITLE10=Vila
TTITLE11=Spartakus and the sun beneath the sea
EXTD=
EXTT0=
EXTT1=
EXTT2=
EXTT3=
EXTT4=
EXTT5=
EXTT6=
EXTT7=
EXTT8=
EXTT9=
EXTT10=
EXTT11=
PLAYORDER=
